<?xml version="1.0" encoding="UTF-8"?> <svg xmlns="http://www.w3.org/2000/svg" xmlns:xlink="http://www.w3.org/1999/xlink" width="29px" height="21px" viewBox="0 0 29 21" version="1.1"><title>youtube</title><g id="Page-1" stroke="none" stroke-width="1" fill="none" fill-rule="evenodd"><g id="O-nás" transform="translate(-886.000000, -6419.000000)" fill-rule="nonzero"><g id="Group-14" transform="translate(870.439024, 6400.926829)"><g id="youtube" transform="translate(15.560976, 18.073171)"><path d="M28.402499,3.16588431 C28.068188,1.92797062 27.0887075,0.952190427 25.8466015,0.61884662 C23.5772248,0 14.4997178,0 14.4997178,0 C14.4997178,0 5.42243204,0 3.1530553,0.595256799 C1.93484445,0.928380155 0.931468834,1.92819107 0.597157843,3.16588431 C0,5.42697828 0,10.1162791 0,10.1162791 C0,10.1162791 0,14.8291697 0.597157843,17.0666738 C0.931690128,18.304367 1.91094929,19.2803677 3.15327654,19.6137115 C5.4463272,20.2325581 14.499939,20.2325581 14.499939,20.2325581 C14.499939,20.2325581 23.5772248,20.2325581 25.8466015,19.6373013 C27.0889288,19.304178 28.068188,18.3281773 28.4027202,17.0904841 C29,14.8291697 29,10.1400893 29,10.1400893 C29,10.1400893 29.0237732,5.42697828 28.402499,3.16588431 Z" id="Path" fill="#FF0000"></path><polygon id="Path" fill="#FFFFFF" points="11.4651163 14.8372093 18.8837209 10.4534884 11.4651163 6.06976744"></polygon></g></g></g></g></svg> 