<?xml version="1.0" encoding="UTF-8"?> <svg xmlns="http://www.w3.org/2000/svg" xmlns:xlink="http://www.w3.org/1999/xlink" width="28px" height="28px" viewBox="0 0 28 28" version="1.1"><title>Group</title><g id="Page-1" stroke="none" stroke-width="1" fill="none" fill-rule="evenodd"><g id="O-nás" transform="translate(-1135.000000, -6416.000000)" fill="#CA9435" fill-rule="nonzero"><g id="ig_hover" transform="translate(1119.878049, 6400.926829)"><g id="Group" transform="translate(16.097561, 15.365854)"><path d="M18.4852288,0 L7.85320176,0 C3.50373617,0 0,3.53658537 0,8.04878049 L0,19.0243902 C0,23.4146341 3.50373617,27.0731707 7.85320176,27.0731707 L18.4852288,27.0731707 C22.8346944,27.0731707 26.3384305,23.5365854 26.3384305,19.0243902 L26.3384305,8.04878049 C26.459249,3.53658537 22.9555128,0 18.4852288,0 Z M23.6804238,19.0243902 C23.6804238,21.9512195 21.264054,24.3902439 18.4852288,24.3902439 L7.85320176,24.3902439 C4.95355804,24.3902439 2.65800675,21.9512195 2.65800675,19.0243902 L2.65800675,8.04878049 C2.65800675,5.12195122 5.07437652,2.68292683 7.85320176,2.68292683 L18.4852288,2.68292683 C21.3848725,2.68292683 23.6804238,5.12195122 23.6804238,8.04878049 L23.6804238,19.0243902 Z" id="Shape_00000007411394262338685380000004108496949513698959_"></path><path d="M13.1692153,6.58536585 C9.42384212,6.58536585 6.28256141,9.75609756 6.28256141,13.6585366 C6.28256141,17.5609756 9.30302363,20.7317073 13.1692153,20.7317073 C17.0354069,20.7317073 20.0558691,17.5609756 20.0558691,13.6585366 C20.0558691,9.75609756 17.0354069,6.58536585 13.1692153,6.58536585 Z M13.1692153,17.804878 C10.873664,17.804878 9.06138665,15.8536585 9.06138665,13.5365854 C9.06138665,11.2195122 10.873664,9.26829268 13.1692153,9.26829268 C15.4647666,9.26829268 17.2770439,11.2195122 17.2770439,13.5365854 C17.3978624,15.9756098 15.4647666,17.804878 13.1692153,17.804878 Z" id="Shape_00000057112792029590728040000016535907572828547744_"></path><ellipse id="Oval_00000014628212638208865780000008812548796726895272_" cx="20.0558691" cy="6.58536585" rx="1.69145884" ry="1.70731707"></ellipse></g></g></g></g></svg> 