<?xml version="1.0" encoding="UTF-8"?> <svg xmlns="http://www.w3.org/2000/svg" xmlns:xlink="http://www.w3.org/1999/xlink" width="19px" height="18px" viewBox="0 0 19 18" version="1.1"><title>linkedin</title><g id="Page-1" stroke="none" stroke-width="1" fill="none" fill-rule="evenodd"><g id="linkedin" transform="translate(0.720204, 0.836607)" fill="#007AB9" fill-rule="nonzero"><path d="M17.8396378,10.4508538 L17.8396378,17.04731 L14.0151877,17.04731 L14.0151877,10.8929373 C14.0151877,9.34764163 13.4630112,8.29234553 12.0782916,8.29234553 C11.0215694,8.29234553 10.3938109,9.00281653 10.1165817,9.69075543 C10.0159008,9.93661093 9.98994617,10.2780134 9.98994617,10.6228386 L9.98994617,17.0470248 L6.16521087,17.0470248 C6.16521087,17.0470248 6.21654957,6.62355163 6.16521087,5.54458273 L9.99023137,5.54458273 L9.99023137,7.17458733 C9.98253057,7.18742203 9.97169237,7.19997143 9.96484727,7.21223573 L9.99023137,7.21223573 L9.99023137,7.17458733 C10.4984848,6.39252733 11.4048986,5.27448393 13.4370566,5.27448393 C15.9532247,5.27448393 17.8396378,6.91846413 17.8396378,10.4508538 L17.8396378,10.4508538 Z M2.16421267,0 C0.85593067,0 -1.77635684e-15,0.85878284 -1.77635684e-15,1.98709403 C-1.77635684e-15,3.09144713 0.83111697,3.97504363 2.11401477,3.97504363 L2.13882847,3.97504363 C3.47277977,3.97504363 4.30218547,3.09144713 4.30218547,1.98709403 C4.27680127,0.85878284 3.47277977,0 2.16421267,0 L2.16421267,0 Z M0.22731648,17.04731 L4.05062567,17.04731 L4.05062567,5.54458273 L0.22731648,5.54458273 L0.22731648,17.04731 Z" id="Shape"></path></g></g></svg> 